<?xml version="1.0" encoding="utf-8"?>
<svg xmlns="http://www.w3.org/2000/svg" xmlns:xlink="http://www.w3.org/1999/xlink" width="600" height="400" viewBox="0 0 2400 1600">
<defs>
  <clipPath id="clip740">
    <rect x="0" y="0" width="2400" height="1600"/>
  </clipPath>
</defs>
<path clip-path="url(#clip740)" d="M0 1600 L2400 1600 L2400 0 L0 0  Z" fill="#ffffff" fill-rule="evenodd" fill-opacity="1"/>
<defs>
  <clipPath id="clip741">
    <rect x="480" y="0" width="1681" height="1600"/>
  </clipPath>
</defs>
<path clip-path="url(#clip740)" d="M482.992 1521.01 L1956.76 1521.01 L1956.76 47.2441 L482.992 47.2441  Z" fill="#ffffff" fill-rule="evenodd" fill-opacity="1"/>
<defs>
  <clipPath id="clip742">
    <rect x="482" y="47" width="1475" height="1475"/>
  </clipPath>
</defs>
<polyline clip-path="url(#clip740)" style="stroke:#000000; stroke-linecap:round; stroke-linejoin:round; stroke-width:4; stroke-opacity:1; fill:none" points="482.992,1521.01 1956.76,1521.01 "/>
<polyline clip-path="url(#clip740)" style="stroke:#000000; stroke-linecap:round; stroke-linejoin:round; stroke-width:4; stroke-opacity:1; fill:none" points="482.992,47.2441 1956.76,47.2441 "/>
<polyline clip-path="url(#clip740)" style="stroke:#000000; stroke-linecap:round; stroke-linejoin:round; stroke-width:4; stroke-opacity:1; fill:none" points="765.836,1521.01 765.836,1502.11 "/>
<polyline clip-path="url(#clip740)" style="stroke:#000000; stroke-linecap:round; stroke-linejoin:round; stroke-width:4; stroke-opacity:1; fill:none" points="1063.57,1521.01 1063.57,1502.11 "/>
<polyline clip-path="url(#clip740)" style="stroke:#000000; stroke-linecap:round; stroke-linejoin:round; stroke-width:4; stroke-opacity:1; fill:none" points="1361.3,1521.01 1361.3,1502.11 "/>
<polyline clip-path="url(#clip740)" style="stroke:#000000; stroke-linecap:round; stroke-linejoin:round; stroke-width:4; stroke-opacity:1; fill:none" points="1659.03,1521.01 1659.03,1502.11 "/>
<polyline clip-path="url(#clip740)" style="stroke:#000000; stroke-linecap:round; stroke-linejoin:round; stroke-width:4; stroke-opacity:1; fill:none" points="1956.76,1521.01 1956.76,1502.11 "/>
<path clip-path="url(#clip740)" d="M744.609 1579.47 L760.928 1579.47 L760.928 1583.41 L738.984 1583.41 L738.984 1579.47 Q741.646 1576.72 746.229 1572.09 Q750.836 1567.44 752.016 1566.09 Q754.262 1563.57 755.141 1561.83 Q756.044 1560.07 756.044 1558.38 Q756.044 1555.63 754.1 1553.89 Q752.178 1552.16 749.077 1552.16 Q746.877 1552.16 744.424 1552.92 Q741.993 1553.69 739.215 1555.24 L739.215 1550.51 Q742.04 1549.38 744.493 1548.8 Q746.947 1548.22 748.984 1548.22 Q754.354 1548.22 757.549 1550.91 Q760.743 1553.59 760.743 1558.08 Q760.743 1560.21 759.933 1562.13 Q759.146 1564.03 757.039 1566.63 Q756.461 1567.3 753.359 1570.51 Q750.257 1573.71 744.609 1579.47 Z" fill="#000000" fill-rule="nonzero" fill-opacity="1" /><path clip-path="url(#clip740)" d="M780.743 1551.93 Q777.132 1551.93 775.303 1555.49 Q773.498 1559.03 773.498 1566.16 Q773.498 1573.27 775.303 1576.83 Q777.132 1580.38 780.743 1580.38 Q784.377 1580.38 786.183 1576.83 Q788.011 1573.27 788.011 1566.16 Q788.011 1559.03 786.183 1555.49 Q784.377 1551.93 780.743 1551.93 M780.743 1548.22 Q786.553 1548.22 789.609 1552.83 Q792.687 1557.41 792.687 1566.16 Q792.687 1574.89 789.609 1579.5 Q786.553 1584.08 780.743 1584.08 Q774.933 1584.08 771.854 1579.5 Q768.799 1574.89 768.799 1566.16 Q768.799 1557.41 771.854 1552.83 Q774.933 1548.22 780.743 1548.22 Z" fill="#000000" fill-rule="nonzero" fill-opacity="1" /><path clip-path="url(#clip740)" d="M1051.74 1552.92 L1039.93 1571.37 L1051.74 1571.37 L1051.74 1552.92 M1050.51 1548.85 L1056.39 1548.85 L1056.39 1571.37 L1061.32 1571.37 L1061.32 1575.26 L1056.39 1575.26 L1056.39 1583.41 L1051.74 1583.41 L1051.74 1575.26 L1036.14 1575.26 L1036.14 1570.75 L1050.51 1548.85 Z" fill="#000000" fill-rule="nonzero" fill-opacity="1" /><path clip-path="url(#clip740)" d="M1079.05 1551.93 Q1075.44 1551.93 1073.61 1555.49 Q1071.81 1559.03 1071.81 1566.16 Q1071.81 1573.27 1073.61 1576.83 Q1075.44 1580.38 1079.05 1580.38 Q1082.69 1580.38 1084.49 1576.83 Q1086.32 1573.27 1086.32 1566.16 Q1086.32 1559.03 1084.49 1555.49 Q1082.69 1551.93 1079.05 1551.93 M1079.05 1548.22 Q1084.86 1548.22 1087.92 1552.83 Q1091 1557.41 1091 1566.16 Q1091 1574.89 1087.92 1579.5 Q1084.86 1584.08 1079.05 1584.08 Q1073.24 1584.08 1070.16 1579.5 Q1067.11 1574.89 1067.11 1566.16 Q1067.11 1557.41 1070.16 1552.83 Q1073.24 1548.22 1079.05 1548.22 Z" fill="#000000" fill-rule="nonzero" fill-opacity="1" /><path clip-path="url(#clip740)" d="M1346.7 1564.26 Q1343.55 1564.26 1341.7 1566.42 Q1339.87 1568.57 1339.87 1572.32 Q1339.87 1576.05 1341.7 1578.22 Q1343.55 1580.38 1346.7 1580.38 Q1349.85 1580.38 1351.68 1578.22 Q1353.53 1576.05 1353.53 1572.32 Q1353.53 1568.57 1351.68 1566.42 Q1349.85 1564.26 1346.7 1564.26 M1355.98 1549.61 L1355.98 1553.87 Q1354.22 1553.04 1352.42 1552.6 Q1350.64 1552.16 1348.88 1552.16 Q1344.25 1552.16 1341.79 1555.28 Q1339.36 1558.41 1339.02 1564.73 Q1340.38 1562.71 1342.44 1561.65 Q1344.5 1560.56 1346.98 1560.56 Q1352.19 1560.56 1355.2 1563.73 Q1358.23 1566.88 1358.23 1572.32 Q1358.23 1577.64 1355.08 1580.86 Q1351.93 1584.08 1346.7 1584.08 Q1340.71 1584.08 1337.53 1579.5 Q1334.36 1574.89 1334.36 1566.16 Q1334.36 1557.97 1338.25 1553.11 Q1342.14 1548.22 1348.69 1548.22 Q1350.45 1548.22 1352.23 1548.57 Q1354.04 1548.92 1355.98 1549.61 Z" fill="#000000" fill-rule="nonzero" fill-opacity="1" /><path clip-path="url(#clip740)" d="M1376.28 1551.93 Q1372.67 1551.93 1370.84 1555.49 Q1369.04 1559.03 1369.04 1566.16 Q1369.04 1573.27 1370.84 1576.83 Q1372.67 1580.38 1376.28 1580.38 Q1379.92 1580.38 1381.72 1576.83 Q1383.55 1573.27 1383.55 1566.16 Q1383.55 1559.03 1381.72 1555.49 Q1379.92 1551.93 1376.28 1551.93 M1376.28 1548.22 Q1382.09 1548.22 1385.15 1552.83 Q1388.23 1557.41 1388.23 1566.16 Q1388.23 1574.89 1385.15 1579.5 Q1382.09 1584.08 1376.28 1584.08 Q1370.47 1584.08 1367.4 1579.5 Q1364.34 1574.89 1364.34 1566.16 Q1364.34 1557.41 1367.4 1552.83 Q1370.47 1548.22 1376.28 1548.22 Z" fill="#000000" fill-rule="nonzero" fill-opacity="1" /><path clip-path="url(#clip740)" d="M1643.9 1567 Q1640.57 1567 1638.64 1568.78 Q1636.75 1570.56 1636.75 1573.69 Q1636.75 1576.81 1638.64 1578.59 Q1640.57 1580.38 1643.9 1580.38 Q1647.23 1580.38 1649.15 1578.59 Q1651.07 1576.79 1651.07 1573.69 Q1651.07 1570.56 1649.15 1568.78 Q1647.26 1567 1643.9 1567 M1639.22 1565.01 Q1636.21 1564.26 1634.52 1562.2 Q1632.86 1560.14 1632.86 1557.18 Q1632.86 1553.04 1635.8 1550.63 Q1638.76 1548.22 1643.9 1548.22 Q1649.06 1548.22 1652 1550.63 Q1654.94 1553.04 1654.94 1557.18 Q1654.94 1560.14 1653.25 1562.2 Q1651.58 1564.26 1648.6 1565.01 Q1651.98 1565.79 1653.85 1568.08 Q1655.75 1570.38 1655.75 1573.69 Q1655.75 1578.71 1652.67 1581.39 Q1649.62 1584.08 1643.9 1584.08 Q1638.18 1584.08 1635.1 1581.39 Q1632.05 1578.71 1632.05 1573.69 Q1632.05 1570.38 1633.94 1568.08 Q1635.84 1565.79 1639.22 1565.01 M1637.51 1557.62 Q1637.51 1560.31 1639.18 1561.81 Q1640.87 1563.32 1643.9 1563.32 Q1646.91 1563.32 1648.6 1561.81 Q1650.31 1560.31 1650.31 1557.62 Q1650.31 1554.94 1648.6 1553.43 Q1646.91 1551.93 1643.9 1551.93 Q1640.87 1551.93 1639.18 1553.43 Q1637.51 1554.94 1637.51 1557.62 Z" fill="#000000" fill-rule="nonzero" fill-opacity="1" /><path clip-path="url(#clip740)" d="M1674.06 1551.93 Q1670.45 1551.93 1668.62 1555.49 Q1666.82 1559.03 1666.82 1566.16 Q1666.82 1573.27 1668.62 1576.83 Q1670.45 1580.38 1674.06 1580.38 Q1677.69 1580.38 1679.5 1576.83 Q1681.33 1573.27 1681.33 1566.16 Q1681.33 1559.03 1679.5 1555.49 Q1677.69 1551.93 1674.06 1551.93 M1674.06 1548.22 Q1679.87 1548.22 1682.93 1552.83 Q1686 1557.41 1686 1566.16 Q1686 1574.89 1682.93 1579.5 Q1679.87 1584.08 1674.06 1584.08 Q1668.25 1584.08 1665.17 1579.5 Q1662.12 1574.89 1662.12 1566.16 Q1662.12 1557.41 1665.17 1552.83 Q1668.25 1548.22 1674.06 1548.22 Z" fill="#000000" fill-rule="nonzero" fill-opacity="1" /><path clip-path="url(#clip740)" d="M1916.36 1579.47 L1924 1579.47 L1924 1553.11 L1915.69 1554.77 L1915.69 1550.51 L1923.96 1548.85 L1928.63 1548.85 L1928.63 1579.47 L1936.27 1579.47 L1936.27 1583.41 L1916.36 1583.41 L1916.36 1579.47 Z" fill="#000000" fill-rule="nonzero" fill-opacity="1" /><path clip-path="url(#clip740)" d="M1955.71 1551.93 Q1952.1 1551.93 1950.27 1555.49 Q1948.47 1559.03 1948.47 1566.16 Q1948.47 1573.27 1950.27 1576.83 Q1952.1 1580.38 1955.71 1580.38 Q1959.35 1580.38 1961.15 1576.83 Q1962.98 1573.27 1962.98 1566.16 Q1962.98 1559.03 1961.15 1555.49 Q1959.35 1551.93 1955.71 1551.93 M1955.71 1548.22 Q1961.52 1548.22 1964.58 1552.83 Q1967.66 1557.41 1967.66 1566.16 Q1967.66 1574.89 1964.58 1579.5 Q1961.52 1584.08 1955.71 1584.08 Q1949.9 1584.08 1946.83 1579.5 Q1943.77 1574.89 1943.77 1566.16 Q1943.77 1557.41 1946.83 1552.83 Q1949.9 1548.22 1955.71 1548.22 Z" fill="#000000" fill-rule="nonzero" fill-opacity="1" /><path clip-path="url(#clip740)" d="M1985.88 1551.93 Q1982.27 1551.93 1980.44 1555.49 Q1978.63 1559.03 1978.63 1566.16 Q1978.63 1573.27 1980.44 1576.83 Q1982.27 1580.38 1985.88 1580.38 Q1989.51 1580.38 1991.32 1576.83 Q1993.14 1573.27 1993.14 1566.16 Q1993.14 1559.03 1991.32 1555.49 Q1989.51 1551.93 1985.88 1551.93 M1985.88 1548.22 Q1991.69 1548.22 1994.74 1552.83 Q1997.82 1557.41 1997.82 1566.16 Q1997.82 1574.89 1994.74 1579.5 Q1991.69 1584.08 1985.88 1584.08 Q1980.07 1584.08 1976.99 1579.5 Q1973.93 1574.89 1973.93 1566.16 Q1973.93 1557.41 1976.99 1552.83 Q1980.07 1548.22 1985.88 1548.22 Z" fill="#000000" fill-rule="nonzero" fill-opacity="1" /><polyline clip-path="url(#clip740)" style="stroke:#000000; stroke-linecap:round; stroke-linejoin:round; stroke-width:4; stroke-opacity:1; fill:none" points="482.992,1521.01 482.992,47.2441 "/>
<polyline clip-path="url(#clip740)" style="stroke:#000000; stroke-linecap:round; stroke-linejoin:round; stroke-width:4; stroke-opacity:1; fill:none" points="1956.76,1521.01 1956.76,47.2441 "/>
<polyline clip-path="url(#clip740)" style="stroke:#000000; stroke-linecap:round; stroke-linejoin:round; stroke-width:4; stroke-opacity:1; fill:none" points="482.992,1238.16 495.284,1238.16 "/>
<polyline clip-path="url(#clip740)" style="stroke:#000000; stroke-linecap:round; stroke-linejoin:round; stroke-width:4; stroke-opacity:1; fill:none" points="482.992,940.434 495.284,940.434 "/>
<polyline clip-path="url(#clip740)" style="stroke:#000000; stroke-linecap:round; stroke-linejoin:round; stroke-width:4; stroke-opacity:1; fill:none" points="482.992,642.704 495.284,642.704 "/>
<polyline clip-path="url(#clip740)" style="stroke:#000000; stroke-linecap:round; stroke-linejoin:round; stroke-width:4; stroke-opacity:1; fill:none" points="482.992,344.974 495.284,344.974 "/>
<polyline clip-path="url(#clip740)" style="stroke:#000000; stroke-linecap:round; stroke-linejoin:round; stroke-width:4; stroke-opacity:1; fill:none" points="482.992,47.2441 495.284,47.2441 "/>
<path clip-path="url(#clip740)" d="M398.914 1251.51 L415.233 1251.51 L415.233 1255.44 L393.289 1255.44 L393.289 1251.51 Q395.951 1248.75 400.534 1244.12 Q405.14 1239.47 406.321 1238.13 Q408.566 1235.61 409.446 1233.87 Q410.349 1232.11 410.349 1230.42 Q410.349 1227.67 408.404 1225.93 Q406.483 1224.19 403.381 1224.19 Q401.182 1224.19 398.728 1224.96 Q396.298 1225.72 393.52 1227.27 L393.52 1222.55 Q396.344 1221.42 398.798 1220.84 Q401.252 1220.26 403.289 1220.26 Q408.659 1220.26 411.853 1222.94 Q415.048 1225.63 415.048 1230.12 Q415.048 1232.25 414.238 1234.17 Q413.451 1236.07 411.344 1238.66 Q410.765 1239.33 407.664 1242.55 Q404.562 1245.75 398.914 1251.51 Z" fill="#000000" fill-rule="nonzero" fill-opacity="1" /><path clip-path="url(#clip740)" d="M435.048 1223.96 Q431.437 1223.96 429.608 1227.53 Q427.802 1231.07 427.802 1238.2 Q427.802 1245.31 429.608 1248.87 Q431.437 1252.41 435.048 1252.41 Q438.682 1252.41 440.488 1248.87 Q442.316 1245.31 442.316 1238.2 Q442.316 1231.07 440.488 1227.53 Q438.682 1223.96 435.048 1223.96 M435.048 1220.26 Q440.858 1220.26 443.913 1224.87 Q446.992 1229.45 446.992 1238.2 Q446.992 1246.93 443.913 1251.53 Q440.858 1256.12 435.048 1256.12 Q429.238 1256.12 426.159 1251.53 Q423.103 1246.93 423.103 1238.2 Q423.103 1229.45 426.159 1224.87 Q429.238 1220.26 435.048 1220.26 Z" fill="#000000" fill-rule="nonzero" fill-opacity="1" /><path clip-path="url(#clip740)" d="M407.733 927.228 L395.928 945.677 L407.733 945.677 L407.733 927.228 M406.506 923.154 L412.386 923.154 L412.386 945.677 L417.316 945.677 L417.316 949.566 L412.386 949.566 L412.386 957.714 L407.733 957.714 L407.733 949.566 L392.131 949.566 L392.131 945.052 L406.506 923.154 Z" fill="#000000" fill-rule="nonzero" fill-opacity="1" /><path clip-path="url(#clip740)" d="M435.048 926.233 Q431.437 926.233 429.608 929.798 Q427.802 933.339 427.802 940.469 Q427.802 947.575 429.608 951.14 Q431.437 954.682 435.048 954.682 Q438.682 954.682 440.488 951.14 Q442.316 947.575 442.316 940.469 Q442.316 933.339 440.488 929.798 Q438.682 926.233 435.048 926.233 M435.048 922.529 Q440.858 922.529 443.913 927.136 Q446.992 931.719 446.992 940.469 Q446.992 949.196 443.913 953.802 Q440.858 958.386 435.048 958.386 Q429.238 958.386 426.159 953.802 Q423.103 949.196 423.103 940.469 Q423.103 931.719 426.159 927.136 Q429.238 922.529 435.048 922.529 Z" fill="#000000" fill-rule="nonzero" fill-opacity="1" /><path clip-path="url(#clip740)" d="M405.465 640.841 Q402.316 640.841 400.465 642.994 Q398.636 645.146 398.636 648.896 Q398.636 652.623 400.465 654.799 Q402.316 656.952 405.465 656.952 Q408.613 656.952 410.441 654.799 Q412.293 652.623 412.293 648.896 Q412.293 645.146 410.441 642.994 Q408.613 640.841 405.465 640.841 M414.747 626.188 L414.747 630.447 Q412.988 629.614 411.182 629.174 Q409.4 628.734 407.64 628.734 Q403.011 628.734 400.557 631.859 Q398.127 634.984 397.779 641.304 Q399.145 639.29 401.205 638.225 Q403.266 637.137 405.742 637.137 Q410.951 637.137 413.96 640.308 Q416.992 643.457 416.992 648.896 Q416.992 654.22 413.844 657.438 Q410.696 660.656 405.465 660.656 Q399.469 660.656 396.298 656.072 Q393.127 651.466 393.127 642.739 Q393.127 634.545 397.016 629.683 Q400.904 624.799 407.455 624.799 Q409.215 624.799 410.997 625.146 Q412.802 625.494 414.747 626.188 Z" fill="#000000" fill-rule="nonzero" fill-opacity="1" /><path clip-path="url(#clip740)" d="M435.048 628.503 Q431.437 628.503 429.608 632.068 Q427.802 635.609 427.802 642.739 Q427.802 649.845 429.608 653.41 Q431.437 656.952 435.048 656.952 Q438.682 656.952 440.488 653.41 Q442.316 649.845 442.316 642.739 Q442.316 635.609 440.488 632.068 Q438.682 628.503 435.048 628.503 M435.048 624.799 Q440.858 624.799 443.913 629.406 Q446.992 633.989 446.992 642.739 Q446.992 651.466 443.913 656.072 Q440.858 660.656 435.048 660.656 Q429.238 660.656 426.159 656.072 Q423.103 651.466 423.103 642.739 Q423.103 633.989 426.159 629.406 Q429.238 624.799 435.048 624.799 Z" fill="#000000" fill-rule="nonzero" fill-opacity="1" /><path clip-path="url(#clip740)" d="M404.886 345.842 Q401.553 345.842 399.631 347.625 Q397.733 349.407 397.733 352.532 Q397.733 355.657 399.631 357.439 Q401.553 359.222 404.886 359.222 Q408.219 359.222 410.14 357.439 Q412.062 355.634 412.062 352.532 Q412.062 349.407 410.14 347.625 Q408.242 345.842 404.886 345.842 M400.21 343.851 Q397.201 343.111 395.511 341.051 Q393.844 338.99 393.844 336.027 Q393.844 331.884 396.784 329.477 Q399.747 327.069 404.886 327.069 Q410.048 327.069 412.988 329.477 Q415.927 331.884 415.927 336.027 Q415.927 338.99 414.238 341.051 Q412.571 343.111 409.585 343.851 Q412.965 344.639 414.84 346.93 Q416.738 349.222 416.738 352.532 Q416.738 357.555 413.659 360.24 Q410.603 362.925 404.886 362.925 Q399.168 362.925 396.09 360.24 Q393.034 357.555 393.034 352.532 Q393.034 349.222 394.932 346.93 Q396.83 344.639 400.21 343.851 M398.497 336.467 Q398.497 339.152 400.164 340.657 Q401.853 342.162 404.886 342.162 Q407.895 342.162 409.585 340.657 Q411.298 339.152 411.298 336.467 Q411.298 333.782 409.585 332.277 Q407.895 330.773 404.886 330.773 Q401.853 330.773 400.164 332.277 Q398.497 333.782 398.497 336.467 Z" fill="#000000" fill-rule="nonzero" fill-opacity="1" /><path clip-path="url(#clip740)" d="M435.048 330.773 Q431.437 330.773 429.608 334.338 Q427.802 337.879 427.802 345.009 Q427.802 352.115 429.608 355.68 Q431.437 359.222 435.048 359.222 Q438.682 359.222 440.488 355.68 Q442.316 352.115 442.316 345.009 Q442.316 337.879 440.488 334.338 Q438.682 330.773 435.048 330.773 M435.048 327.069 Q440.858 327.069 443.913 331.676 Q446.992 336.259 446.992 345.009 Q446.992 353.736 443.913 358.342 Q440.858 362.925 435.048 362.925 Q429.238 362.925 426.159 358.342 Q423.103 353.736 423.103 345.009 Q423.103 336.259 426.159 331.676 Q429.238 327.069 435.048 327.069 Z" fill="#000000" fill-rule="nonzero" fill-opacity="1" /><path clip-path="url(#clip740)" d="M365.534 60.5889 L373.173 60.5889 L373.173 34.2233 L364.863 35.89 L364.863 31.6308 L373.127 29.9641 L377.803 29.9641 L377.803 60.5889 L385.442 60.5889 L385.442 64.5241 L365.534 64.5241 L365.534 60.5889 Z" fill="#000000" fill-rule="nonzero" fill-opacity="1" /><path clip-path="url(#clip740)" d="M404.886 33.0428 Q401.275 33.0428 399.446 36.6076 Q397.641 40.1492 397.641 47.2788 Q397.641 54.3853 399.446 57.9501 Q401.275 61.4917 404.886 61.4917 Q408.52 61.4917 410.326 57.9501 Q412.154 54.3853 412.154 47.2788 Q412.154 40.1492 410.326 36.6076 Q408.52 33.0428 404.886 33.0428 M404.886 29.3391 Q410.696 29.3391 413.752 33.9456 Q416.83 38.5289 416.83 47.2788 Q416.83 56.0056 413.752 60.6121 Q410.696 65.1954 404.886 65.1954 Q399.076 65.1954 395.997 60.6121 Q392.941 56.0056 392.941 47.2788 Q392.941 38.5289 395.997 33.9456 Q399.076 29.3391 404.886 29.3391 Z" fill="#000000" fill-rule="nonzero" fill-opacity="1" /><path clip-path="url(#clip740)" d="M435.048 33.0428 Q431.437 33.0428 429.608 36.6076 Q427.802 40.1492 427.802 47.2788 Q427.802 54.3853 429.608 57.9501 Q431.437 61.4917 435.048 61.4917 Q438.682 61.4917 440.488 57.9501 Q442.316 54.3853 442.316 47.2788 Q442.316 40.1492 440.488 36.6076 Q438.682 33.0428 435.048 33.0428 M435.048 29.3391 Q440.858 29.3391 443.913 33.9456 Q446.992 38.5289 446.992 47.2788 Q446.992 56.0056 443.913 60.6121 Q440.858 65.1954 435.048 65.1954 Q429.238 65.1954 426.159 60.6121 Q423.103 56.0056 423.103 47.2788 Q423.103 38.5289 426.159 33.9456 Q429.238 29.3391 435.048 29.3391 Z" fill="#000000" fill-rule="nonzero" fill-opacity="1" /><polyline clip-path="url(#clip742)" style="stroke:#0b0726; stroke-linecap:round; stroke-linejoin:round; stroke-width:4; stroke-opacity:1; fill:none" points="1063.57,805.463 1049.67,791.569 1063.57,777.675 1077.46,791.569 1063.57,805.463 "/>
<polyline clip-path="url(#clip742)" style="stroke:#240b4e; stroke-linecap:round; stroke-linejoin:round; stroke-width:4; stroke-opacity:1; fill:none" points="1063.57,804.471 1050.66,791.569 1063.57,778.668 1076.47,791.569 1063.57,804.471 "/>
<polyline clip-path="url(#clip742)" style="stroke:#410967; stroke-linecap:round; stroke-linejoin:round; stroke-width:4; stroke-opacity:1; fill:none" points="1063.57,803.478 1051.66,791.569 1063.57,779.66 1075.47,791.569 1063.57,803.478 "/>
<polyline clip-path="url(#clip742)" style="stroke:#5d126e; stroke-linecap:round; stroke-linejoin:round; stroke-width:4; stroke-opacity:1; fill:none" points="1063.57,802.486 1052.65,791.569 1063.57,780.652 1074.48,791.569 1063.57,802.486 "/>
<polyline clip-path="url(#clip742)" style="stroke:#781c6d; stroke-linecap:round; stroke-linejoin:round; stroke-width:4; stroke-opacity:1; fill:none" points="1063.57,801.494 1053.64,791.569 1063.57,781.645 1073.49,791.569 1063.57,801.494 "/>
<polyline clip-path="url(#clip742)" style="stroke:#932567; stroke-linecap:round; stroke-linejoin:round; stroke-width:4; stroke-opacity:1; fill:none" points="1063.57,800.501 1054.63,791.569 1063.57,782.637 1072.5,791.569 1063.57,800.501 "/>
<polyline clip-path="url(#clip742)" style="stroke:#ae305b; stroke-linecap:round; stroke-linejoin:round; stroke-width:4; stroke-opacity:1; fill:none" points="1063.57,799.509 1055.63,791.569 1063.57,783.63 1071.51,791.569 1063.57,799.509 "/>
<polyline clip-path="url(#clip742)" style="stroke:#c73e4c; stroke-linecap:round; stroke-linejoin:round; stroke-width:4; stroke-opacity:1; fill:none" points="1063.57,798.516 1056.62,791.569 1063.57,784.622 1070.51,791.569 1063.57,798.516 "/>
<polyline clip-path="url(#clip742)" style="stroke:#dc5039; stroke-linecap:round; stroke-linejoin:round; stroke-width:4; stroke-opacity:1; fill:none" points="1063.57,797.524 1057.61,791.569 1063.57,785.615 1069.52,791.569 1063.57,797.524 "/>
<polyline clip-path="url(#clip742)" style="stroke:#ed6825; stroke-linecap:round; stroke-linejoin:round; stroke-width:4; stroke-opacity:1; fill:none" points="1063.57,796.531 1058.6,791.569 1063.57,786.607 1068.53,791.569 1063.57,796.531 "/>
<polyline clip-path="url(#clip742)" style="stroke:#f7850e; stroke-linecap:round; stroke-linejoin:round; stroke-width:4; stroke-opacity:1; fill:none" points="1063.57,795.539 1059.6,791.569 1063.57,787.6 1067.54,791.569 1063.57,795.539 "/>
<polyline clip-path="url(#clip742)" style="stroke:#fba40a; stroke-linecap:round; stroke-linejoin:round; stroke-width:4; stroke-opacity:1; fill:none" points="1063.57,794.547 1060.59,791.569 1063.57,788.592 1066.54,791.569 1063.57,794.547 "/>
<polyline clip-path="url(#clip742)" style="stroke:#f9c52c; stroke-linecap:round; stroke-linejoin:round; stroke-width:4; stroke-opacity:1; fill:none" points="1063.57,793.554 1061.58,791.569 1063.57,789.584 1065.55,791.569 1063.57,793.554 "/>
<polyline clip-path="url(#clip742)" style="stroke:#f2e660; stroke-linecap:round; stroke-linejoin:round; stroke-width:4; stroke-opacity:1; fill:none" points="1063.57,792.562 1062.57,791.569 1063.57,790.577 1064.56,791.569 1063.57,792.562 "/>
</svg>
