<?xml version="1.0" encoding="utf-8"?>
<svg xmlns="http://www.w3.org/2000/svg" xmlns:xlink="http://www.w3.org/1999/xlink" width="600" height="400" viewBox="0 0 2400 1600">
<defs>
  <clipPath id="clip920">
    <rect x="0" y="0" width="2400" height="1600"/>
  </clipPath>
</defs>
<path clip-path="url(#clip920)" d="M0 1600 L2400 1600 L2400 0 L0 0  Z" fill="#ffffff" fill-rule="evenodd" fill-opacity="1"/>
<defs>
  <clipPath id="clip921">
    <rect x="480" y="0" width="1681" height="1600"/>
  </clipPath>
</defs>
<path clip-path="url(#clip920)" d="M541.337 1486.45 L1980.54 1486.45 L1980.54 47.2441 L541.337 47.2441  Z" fill="#ffffff" fill-rule="evenodd" fill-opacity="1"/>
<defs>
  <clipPath id="clip922">
    <rect x="541" y="47" width="1440" height="1440"/>
  </clipPath>
</defs>
<polyline clip-path="url(#clip920)" style="stroke:#000000; stroke-linecap:round; stroke-linejoin:round; stroke-width:4; stroke-opacity:1; fill:none" points="541.337,1486.45 1980.54,1486.45 "/>
<polyline clip-path="url(#clip920)" style="stroke:#000000; stroke-linecap:round; stroke-linejoin:round; stroke-width:4; stroke-opacity:1; fill:none" points="541.337,47.2441 1980.54,47.2441 "/>
<polyline clip-path="url(#clip920)" style="stroke:#000000; stroke-linecap:round; stroke-linejoin:round; stroke-width:4; stroke-opacity:1; fill:none" points="817.548,1486.45 817.548,1467.55 "/>
<polyline clip-path="url(#clip920)" style="stroke:#000000; stroke-linecap:round; stroke-linejoin:round; stroke-width:4; stroke-opacity:1; fill:none" points="1108.3,1486.45 1108.3,1467.55 "/>
<polyline clip-path="url(#clip920)" style="stroke:#000000; stroke-linecap:round; stroke-linejoin:round; stroke-width:4; stroke-opacity:1; fill:none" points="1399.04,1486.45 1399.04,1467.55 "/>
<polyline clip-path="url(#clip920)" style="stroke:#000000; stroke-linecap:round; stroke-linejoin:round; stroke-width:4; stroke-opacity:1; fill:none" points="1689.79,1486.45 1689.79,1467.55 "/>
<polyline clip-path="url(#clip920)" style="stroke:#000000; stroke-linecap:round; stroke-linejoin:round; stroke-width:4; stroke-opacity:1; fill:none" points="1980.54,1486.45 1980.54,1467.55 "/>
<polyline clip-path="url(#clip920)" style="stroke:#000000; stroke-linecap:round; stroke-linejoin:round; stroke-width:4; stroke-opacity:1; fill:none" points="817.548,47.2441 817.548,66.1417 "/>
<polyline clip-path="url(#clip920)" style="stroke:#000000; stroke-linecap:round; stroke-linejoin:round; stroke-width:4; stroke-opacity:1; fill:none" points="1108.3,47.2441 1108.3,66.1417 "/>
<polyline clip-path="url(#clip920)" style="stroke:#000000; stroke-linecap:round; stroke-linejoin:round; stroke-width:4; stroke-opacity:1; fill:none" points="1399.04,47.2441 1399.04,66.1417 "/>
<polyline clip-path="url(#clip920)" style="stroke:#000000; stroke-linecap:round; stroke-linejoin:round; stroke-width:4; stroke-opacity:1; fill:none" points="1689.79,47.2441 1689.79,66.1417 "/>
<polyline clip-path="url(#clip920)" style="stroke:#000000; stroke-linecap:round; stroke-linejoin:round; stroke-width:4; stroke-opacity:1; fill:none" points="1980.54,47.2441 1980.54,66.1417 "/>
<path clip-path="url(#clip920)" d="M796.321 1544.91 L812.64 1544.91 L812.64 1548.85 L790.696 1548.85 L790.696 1544.91 Q793.358 1542.16 797.941 1537.53 Q802.548 1532.88 803.728 1531.53 Q805.974 1529.01 806.853 1527.27 Q807.756 1525.51 807.756 1523.82 Q807.756 1521.07 805.811 1519.33 Q803.89 1517.6 800.788 1517.6 Q798.589 1517.6 796.136 1518.36 Q793.705 1519.13 790.927 1520.68 L790.927 1515.95 Q793.751 1514.82 796.205 1514.24 Q798.659 1513.66 800.696 1513.66 Q806.066 1513.66 809.261 1516.35 Q812.455 1519.03 812.455 1523.52 Q812.455 1525.65 811.645 1527.57 Q810.858 1529.47 808.751 1532.07 Q808.173 1532.74 805.071 1535.95 Q801.969 1539.15 796.321 1544.91 Z" fill="#000000" fill-rule="nonzero" fill-opacity="1" /><path clip-path="url(#clip920)" d="M832.455 1517.37 Q828.844 1517.37 827.015 1520.93 Q825.21 1524.47 825.21 1531.6 Q825.21 1538.71 827.015 1542.27 Q828.844 1545.82 832.455 1545.82 Q836.089 1545.82 837.895 1542.27 Q839.723 1538.71 839.723 1531.6 Q839.723 1524.47 837.895 1520.93 Q836.089 1517.37 832.455 1517.37 M832.455 1513.66 Q838.265 1513.66 841.321 1518.27 Q844.399 1522.85 844.399 1531.6 Q844.399 1540.33 841.321 1544.94 Q838.265 1549.52 832.455 1549.52 Q826.645 1549.52 823.566 1544.94 Q820.51 1540.33 820.51 1531.6 Q820.51 1522.85 823.566 1518.27 Q826.645 1513.66 832.455 1513.66 Z" fill="#000000" fill-rule="nonzero" fill-opacity="1" /><path clip-path="url(#clip920)" d="M1096.47 1518.36 L1084.66 1536.81 L1096.47 1536.81 L1096.47 1518.36 M1095.24 1514.29 L1101.12 1514.29 L1101.12 1536.81 L1106.05 1536.81 L1106.05 1540.7 L1101.12 1540.7 L1101.12 1548.85 L1096.47 1548.85 L1096.47 1540.7 L1080.87 1540.7 L1080.87 1536.19 L1095.24 1514.29 Z" fill="#000000" fill-rule="nonzero" fill-opacity="1" /><path clip-path="url(#clip920)" d="M1123.78 1517.37 Q1120.17 1517.37 1118.34 1520.93 Q1116.54 1524.47 1116.54 1531.6 Q1116.54 1538.71 1118.34 1542.27 Q1120.17 1545.82 1123.78 1545.82 Q1127.42 1545.82 1129.22 1542.27 Q1131.05 1538.71 1131.05 1531.6 Q1131.05 1524.47 1129.22 1520.93 Q1127.42 1517.37 1123.78 1517.37 M1123.78 1513.66 Q1129.59 1513.66 1132.65 1518.27 Q1135.73 1522.85 1135.73 1531.6 Q1135.73 1540.33 1132.65 1544.94 Q1129.59 1549.52 1123.78 1549.52 Q1117.97 1549.52 1114.89 1544.94 Q1111.84 1540.33 1111.84 1531.6 Q1111.84 1522.85 1114.89 1518.27 Q1117.97 1513.66 1123.78 1513.66 Z" fill="#000000" fill-rule="nonzero" fill-opacity="1" /><path clip-path="url(#clip920)" d="M1384.45 1529.7 Q1381.3 1529.7 1379.45 1531.86 Q1377.62 1534.01 1377.62 1537.76 Q1377.62 1541.49 1379.45 1543.66 Q1381.3 1545.82 1384.45 1545.82 Q1387.6 1545.82 1389.43 1543.66 Q1391.28 1541.49 1391.28 1537.76 Q1391.28 1534.01 1389.43 1531.86 Q1387.6 1529.7 1384.45 1529.7 M1393.73 1515.05 L1393.73 1519.31 Q1391.97 1518.48 1390.17 1518.04 Q1388.38 1517.6 1386.63 1517.6 Q1382 1517.6 1379.54 1520.72 Q1377.11 1523.85 1376.76 1530.17 Q1378.13 1528.15 1380.19 1527.09 Q1382.25 1526 1384.73 1526 Q1389.94 1526 1392.94 1529.17 Q1395.98 1532.32 1395.98 1537.76 Q1395.98 1543.08 1392.83 1546.3 Q1389.68 1549.52 1384.45 1549.52 Q1378.45 1549.52 1375.28 1544.94 Q1372.11 1540.33 1372.11 1531.6 Q1372.11 1523.41 1376 1518.55 Q1379.89 1513.66 1386.44 1513.66 Q1388.2 1513.66 1389.98 1514.01 Q1391.79 1514.36 1393.73 1515.05 Z" fill="#000000" fill-rule="nonzero" fill-opacity="1" /><path clip-path="url(#clip920)" d="M1414.03 1517.37 Q1410.42 1517.37 1408.59 1520.93 Q1406.79 1524.47 1406.79 1531.6 Q1406.79 1538.71 1408.59 1542.27 Q1410.42 1545.82 1414.03 1545.82 Q1417.67 1545.82 1419.47 1542.27 Q1421.3 1538.71 1421.3 1531.6 Q1421.3 1524.47 1419.47 1520.93 Q1417.67 1517.37 1414.03 1517.37 M1414.03 1513.66 Q1419.84 1513.66 1422.9 1518.27 Q1425.98 1522.85 1425.98 1531.6 Q1425.98 1540.33 1422.9 1544.94 Q1419.84 1549.52 1414.03 1549.52 Q1408.22 1549.52 1405.14 1544.94 Q1402.09 1540.33 1402.09 1531.6 Q1402.09 1522.85 1405.14 1518.27 Q1408.22 1513.66 1414.03 1513.66 Z" fill="#000000" fill-rule="nonzero" fill-opacity="1" /><path clip-path="url(#clip920)" d="M1674.67 1532.44 Q1671.33 1532.44 1669.41 1534.22 Q1667.51 1536 1667.51 1539.13 Q1667.51 1542.25 1669.41 1544.03 Q1671.33 1545.82 1674.67 1545.82 Q1678 1545.82 1679.92 1544.03 Q1681.84 1542.23 1681.84 1539.13 Q1681.84 1536 1679.92 1534.22 Q1678.02 1532.44 1674.67 1532.44 M1669.99 1530.45 Q1666.98 1529.7 1665.29 1527.64 Q1663.62 1525.58 1663.62 1522.62 Q1663.62 1518.48 1666.56 1516.07 Q1669.53 1513.66 1674.67 1513.66 Q1679.83 1513.66 1682.77 1516.07 Q1685.71 1518.48 1685.71 1522.62 Q1685.71 1525.58 1684.02 1527.64 Q1682.35 1529.7 1679.36 1530.45 Q1682.74 1531.23 1684.62 1533.52 Q1686.52 1535.82 1686.52 1539.13 Q1686.52 1544.15 1683.44 1546.83 Q1680.38 1549.52 1674.67 1549.52 Q1668.95 1549.52 1665.87 1546.83 Q1662.81 1544.15 1662.81 1539.13 Q1662.81 1535.82 1664.71 1533.52 Q1666.61 1531.23 1669.99 1530.45 M1668.28 1523.06 Q1668.28 1525.75 1669.94 1527.25 Q1671.63 1528.76 1674.67 1528.76 Q1677.67 1528.76 1679.36 1527.25 Q1681.08 1525.75 1681.08 1523.06 Q1681.08 1520.38 1679.36 1518.87 Q1677.67 1517.37 1674.67 1517.37 Q1671.63 1517.37 1669.94 1518.87 Q1668.28 1520.38 1668.28 1523.06 Z" fill="#000000" fill-rule="nonzero" fill-opacity="1" /><path clip-path="url(#clip920)" d="M1704.83 1517.37 Q1701.22 1517.37 1699.39 1520.93 Q1697.58 1524.47 1697.58 1531.6 Q1697.58 1538.71 1699.39 1542.27 Q1701.22 1545.82 1704.83 1545.82 Q1708.46 1545.82 1710.27 1542.27 Q1712.1 1538.71 1712.1 1531.6 Q1712.1 1524.47 1710.27 1520.93 Q1708.46 1517.37 1704.83 1517.37 M1704.83 1513.66 Q1710.64 1513.66 1713.69 1518.27 Q1716.77 1522.85 1716.77 1531.6 Q1716.77 1540.33 1713.69 1544.94 Q1710.64 1549.52 1704.83 1549.52 Q1699.02 1549.52 1695.94 1544.94 Q1692.88 1540.33 1692.88 1531.6 Q1692.88 1522.85 1695.94 1518.27 Q1699.02 1513.66 1704.83 1513.66 Z" fill="#000000" fill-rule="nonzero" fill-opacity="1" /><path clip-path="url(#clip920)" d="M1940.15 1544.91 L1947.79 1544.91 L1947.79 1518.55 L1939.48 1520.21 L1939.48 1515.95 L1947.74 1514.29 L1952.42 1514.29 L1952.42 1544.91 L1960.05 1544.91 L1960.05 1548.85 L1940.15 1548.85 L1940.15 1544.91 Z" fill="#000000" fill-rule="nonzero" fill-opacity="1" /><path clip-path="url(#clip920)" d="M1979.5 1517.37 Q1975.89 1517.37 1974.06 1520.93 Q1972.25 1524.47 1972.25 1531.6 Q1972.25 1538.71 1974.06 1542.27 Q1975.89 1545.82 1979.5 1545.82 Q1983.13 1545.82 1984.94 1542.27 Q1986.77 1538.71 1986.77 1531.6 Q1986.77 1524.47 1984.94 1520.93 Q1983.13 1517.37 1979.5 1517.37 M1979.5 1513.66 Q1985.31 1513.66 1988.36 1518.27 Q1991.44 1522.85 1991.44 1531.6 Q1991.44 1540.33 1988.36 1544.94 Q1985.31 1549.52 1979.5 1549.52 Q1973.69 1549.52 1970.61 1544.94 Q1967.55 1540.33 1967.55 1531.6 Q1967.55 1522.85 1970.61 1518.27 Q1973.69 1513.66 1979.5 1513.66 Z" fill="#000000" fill-rule="nonzero" fill-opacity="1" /><path clip-path="url(#clip920)" d="M2009.66 1517.37 Q2006.05 1517.37 2004.22 1520.93 Q2002.42 1524.47 2002.42 1531.6 Q2002.42 1538.71 2004.22 1542.27 Q2006.05 1545.82 2009.66 1545.82 Q2013.29 1545.82 2015.1 1542.27 Q2016.93 1538.71 2016.93 1531.6 Q2016.93 1524.47 2015.1 1520.93 Q2013.29 1517.37 2009.66 1517.37 M2009.66 1513.66 Q2015.47 1513.66 2018.53 1518.27 Q2021.61 1522.85 2021.61 1531.6 Q2021.61 1540.33 2018.53 1544.94 Q2015.47 1549.52 2009.66 1549.52 Q2003.85 1549.52 2000.77 1544.94 Q1997.72 1540.33 1997.72 1531.6 Q1997.72 1522.85 2000.77 1518.27 Q2003.85 1513.66 2009.66 1513.66 Z" fill="#000000" fill-rule="nonzero" fill-opacity="1" /><polyline clip-path="url(#clip920)" style="stroke:#000000; stroke-linecap:round; stroke-linejoin:round; stroke-width:4; stroke-opacity:1; fill:none" points="541.337,1486.45 541.337,47.2441 "/>
<polyline clip-path="url(#clip920)" style="stroke:#000000; stroke-linecap:round; stroke-linejoin:round; stroke-width:4; stroke-opacity:1; fill:none" points="1980.54,1486.45 1980.54,47.2441 "/>
<polyline clip-path="url(#clip920)" style="stroke:#000000; stroke-linecap:round; stroke-linejoin:round; stroke-width:4; stroke-opacity:1; fill:none" points="541.337,1210.24 553.792,1210.24 "/>
<polyline clip-path="url(#clip920)" style="stroke:#000000; stroke-linecap:round; stroke-linejoin:round; stroke-width:4; stroke-opacity:1; fill:none" points="541.337,919.489 553.792,919.489 "/>
<polyline clip-path="url(#clip920)" style="stroke:#000000; stroke-linecap:round; stroke-linejoin:round; stroke-width:4; stroke-opacity:1; fill:none" points="541.337,628.741 553.792,628.741 "/>
<polyline clip-path="url(#clip920)" style="stroke:#000000; stroke-linecap:round; stroke-linejoin:round; stroke-width:4; stroke-opacity:1; fill:none" points="541.337,337.992 553.792,337.992 "/>
<polyline clip-path="url(#clip920)" style="stroke:#000000; stroke-linecap:round; stroke-linejoin:round; stroke-width:4; stroke-opacity:1; fill:none" points="541.337,47.2441 553.792,47.2441 "/>
<polyline clip-path="url(#clip920)" style="stroke:#000000; stroke-linecap:round; stroke-linejoin:round; stroke-width:4; stroke-opacity:1; fill:none" points="1980.54,1210.24 1968.09,1210.24 "/>
<polyline clip-path="url(#clip920)" style="stroke:#000000; stroke-linecap:round; stroke-linejoin:round; stroke-width:4; stroke-opacity:1; fill:none" points="1980.54,919.489 1968.09,919.489 "/>
<polyline clip-path="url(#clip920)" style="stroke:#000000; stroke-linecap:round; stroke-linejoin:round; stroke-width:4; stroke-opacity:1; fill:none" points="1980.54,628.741 1968.09,628.741 "/>
<polyline clip-path="url(#clip920)" style="stroke:#000000; stroke-linecap:round; stroke-linejoin:round; stroke-width:4; stroke-opacity:1; fill:none" points="1980.54,337.992 1968.09,337.992 "/>
<polyline clip-path="url(#clip920)" style="stroke:#000000; stroke-linecap:round; stroke-linejoin:round; stroke-width:4; stroke-opacity:1; fill:none" points="1980.54,47.2441 1968.09,47.2441 "/>
<path clip-path="url(#clip920)" d="M457.258 1223.58 L473.578 1223.58 L473.578 1227.52 L451.633 1227.52 L451.633 1223.58 Q454.295 1220.83 458.879 1216.2 Q463.485 1211.54 464.666 1210.2 Q466.911 1207.68 467.791 1205.94 Q468.693 1204.18 468.693 1202.49 Q468.693 1199.74 466.749 1198 Q464.828 1196.27 461.726 1196.27 Q459.527 1196.27 457.073 1197.03 Q454.643 1197.79 451.865 1199.35 L451.865 1194.62 Q454.689 1193.49 457.143 1192.91 Q459.596 1192.33 461.633 1192.33 Q467.004 1192.33 470.198 1195.02 Q473.392 1197.7 473.392 1202.19 Q473.392 1204.32 472.582 1206.24 Q471.795 1208.14 469.689 1210.73 Q469.11 1211.41 466.008 1214.62 Q462.906 1217.82 457.258 1223.58 Z" fill="#000000" fill-rule="nonzero" fill-opacity="1" /><path clip-path="url(#clip920)" d="M493.392 1196.04 Q489.781 1196.04 487.953 1199.6 Q486.147 1203.14 486.147 1210.27 Q486.147 1217.38 487.953 1220.94 Q489.781 1224.48 493.392 1224.48 Q497.027 1224.48 498.832 1220.94 Q500.661 1217.38 500.661 1210.27 Q500.661 1203.14 498.832 1199.6 Q497.027 1196.04 493.392 1196.04 M493.392 1192.33 Q499.202 1192.33 502.258 1196.94 Q505.337 1201.52 505.337 1210.27 Q505.337 1219 502.258 1223.61 Q499.202 1228.19 493.392 1228.19 Q487.582 1228.19 484.503 1223.61 Q481.448 1219 481.448 1210.27 Q481.448 1201.52 484.503 1196.94 Q487.582 1192.33 493.392 1192.33 Z" fill="#000000" fill-rule="nonzero" fill-opacity="1" /><path clip-path="url(#clip920)" d="M466.078 906.283 L454.272 924.732 L466.078 924.732 L466.078 906.283 M464.851 902.209 L470.73 902.209 L470.73 924.732 L475.661 924.732 L475.661 928.621 L470.73 928.621 L470.73 936.769 L466.078 936.769 L466.078 928.621 L450.476 928.621 L450.476 924.107 L464.851 902.209 Z" fill="#000000" fill-rule="nonzero" fill-opacity="1" /><path clip-path="url(#clip920)" d="M493.392 905.287 Q489.781 905.287 487.953 908.852 Q486.147 912.394 486.147 919.524 Q486.147 926.63 487.953 930.195 Q489.781 933.736 493.392 933.736 Q497.027 933.736 498.832 930.195 Q500.661 926.63 500.661 919.524 Q500.661 912.394 498.832 908.852 Q497.027 905.287 493.392 905.287 M493.392 901.584 Q499.202 901.584 502.258 906.19 Q505.337 910.774 505.337 919.524 Q505.337 928.25 502.258 932.857 Q499.202 937.44 493.392 937.44 Q487.582 937.44 484.503 932.857 Q481.448 928.25 481.448 919.524 Q481.448 910.774 484.503 906.19 Q487.582 901.584 493.392 901.584 Z" fill="#000000" fill-rule="nonzero" fill-opacity="1" /><path clip-path="url(#clip920)" d="M463.809 626.877 Q460.661 626.877 458.809 629.03 Q456.98 631.183 456.98 634.933 Q456.98 638.659 458.809 640.835 Q460.661 642.988 463.809 642.988 Q466.957 642.988 468.786 640.835 Q470.638 638.659 470.638 634.933 Q470.638 631.183 468.786 629.03 Q466.957 626.877 463.809 626.877 M473.092 612.224 L473.092 616.484 Q471.332 615.65 469.527 615.211 Q467.744 614.771 465.985 614.771 Q461.355 614.771 458.902 617.896 Q456.471 621.021 456.124 627.34 Q457.49 625.326 459.55 624.261 Q461.61 623.173 464.087 623.173 Q469.295 623.173 472.304 626.345 Q475.337 629.493 475.337 634.933 Q475.337 640.257 472.189 643.474 Q469.041 646.692 463.809 646.692 Q457.814 646.692 454.643 642.109 Q451.471 637.502 451.471 628.775 Q451.471 620.581 455.36 615.72 Q459.249 610.836 465.8 610.836 Q467.559 610.836 469.342 611.183 Q471.147 611.53 473.092 612.224 Z" fill="#000000" fill-rule="nonzero" fill-opacity="1" /><path clip-path="url(#clip920)" d="M493.392 614.539 Q489.781 614.539 487.953 618.104 Q486.147 621.646 486.147 628.775 Q486.147 635.882 487.953 639.447 Q489.781 642.988 493.392 642.988 Q497.027 642.988 498.832 639.447 Q500.661 635.882 500.661 628.775 Q500.661 621.646 498.832 618.104 Q497.027 614.539 493.392 614.539 M493.392 610.836 Q499.202 610.836 502.258 615.442 Q505.337 620.025 505.337 628.775 Q505.337 637.502 502.258 642.109 Q499.202 646.692 493.392 646.692 Q487.582 646.692 484.503 642.109 Q481.448 637.502 481.448 628.775 Q481.448 620.025 484.503 615.442 Q487.582 610.836 493.392 610.836 Z" fill="#000000" fill-rule="nonzero" fill-opacity="1" /><path clip-path="url(#clip920)" d="M463.23 338.86 Q459.897 338.86 457.976 340.643 Q456.078 342.425 456.078 345.55 Q456.078 348.675 457.976 350.458 Q459.897 352.24 463.23 352.24 Q466.564 352.24 468.485 350.458 Q470.406 348.652 470.406 345.55 Q470.406 342.425 468.485 340.643 Q466.587 338.86 463.23 338.86 M458.555 336.87 Q455.545 336.129 453.856 334.069 Q452.189 332.009 452.189 329.046 Q452.189 324.902 455.129 322.495 Q458.092 320.087 463.23 320.087 Q468.392 320.087 471.332 322.495 Q474.272 324.902 474.272 329.046 Q474.272 332.009 472.582 334.069 Q470.916 336.129 467.93 336.87 Q471.309 337.657 473.184 339.948 Q475.082 342.24 475.082 345.55 Q475.082 350.573 472.004 353.258 Q468.948 355.944 463.23 355.944 Q457.513 355.944 454.434 353.258 Q451.379 350.573 451.379 345.55 Q451.379 342.24 453.277 339.948 Q455.175 337.657 458.555 336.87 M456.842 329.485 Q456.842 332.171 458.508 333.675 Q460.198 335.18 463.23 335.18 Q466.24 335.18 467.93 333.675 Q469.642 332.171 469.642 329.485 Q469.642 326.8 467.93 325.296 Q466.24 323.791 463.23 323.791 Q460.198 323.791 458.508 325.296 Q456.842 326.8 456.842 329.485 Z" fill="#000000" fill-rule="nonzero" fill-opacity="1" /><path clip-path="url(#clip920)" d="M493.392 323.791 Q489.781 323.791 487.953 327.356 Q486.147 330.897 486.147 338.027 Q486.147 345.133 487.953 348.698 Q489.781 352.24 493.392 352.24 Q497.027 352.24 498.832 348.698 Q500.661 345.133 500.661 338.027 Q500.661 330.897 498.832 327.356 Q497.027 323.791 493.392 323.791 M493.392 320.087 Q499.202 320.087 502.258 324.694 Q505.337 329.277 505.337 338.027 Q505.337 346.754 502.258 351.36 Q499.202 355.944 493.392 355.944 Q487.582 355.944 484.503 351.36 Q481.448 346.754 481.448 338.027 Q481.448 329.277 484.503 324.694 Q487.582 320.087 493.392 320.087 Z" fill="#000000" fill-rule="nonzero" fill-opacity="1" /><path clip-path="url(#clip920)" d="M423.879 60.5889 L431.518 60.5889 L431.518 34.2233 L423.208 35.89 L423.208 31.6308 L431.471 29.9641 L436.147 29.9641 L436.147 60.5889 L443.786 60.5889 L443.786 64.5241 L423.879 64.5241 L423.879 60.5889 Z" fill="#000000" fill-rule="nonzero" fill-opacity="1" /><path clip-path="url(#clip920)" d="M463.23 33.0428 Q459.619 33.0428 457.791 36.6076 Q455.985 40.1492 455.985 47.2788 Q455.985 54.3853 457.791 57.9501 Q459.619 61.4917 463.23 61.4917 Q466.865 61.4917 468.67 57.9501 Q470.499 54.3853 470.499 47.2788 Q470.499 40.1492 468.67 36.6076 Q466.865 33.0428 463.23 33.0428 M463.23 29.3391 Q469.041 29.3391 472.096 33.9456 Q475.175 38.5289 475.175 47.2788 Q475.175 56.0056 472.096 60.6121 Q469.041 65.1954 463.23 65.1954 Q457.42 65.1954 454.342 60.6121 Q451.286 56.0056 451.286 47.2788 Q451.286 38.5289 454.342 33.9456 Q457.42 29.3391 463.23 29.3391 Z" fill="#000000" fill-rule="nonzero" fill-opacity="1" /><path clip-path="url(#clip920)" d="M493.392 33.0428 Q489.781 33.0428 487.953 36.6076 Q486.147 40.1492 486.147 47.2788 Q486.147 54.3853 487.953 57.9501 Q489.781 61.4917 493.392 61.4917 Q497.027 61.4917 498.832 57.9501 Q500.661 54.3853 500.661 47.2788 Q500.661 40.1492 498.832 36.6076 Q497.027 33.0428 493.392 33.0428 M493.392 29.3391 Q499.202 29.3391 502.258 33.9456 Q505.337 38.5289 505.337 47.2788 Q505.337 56.0056 502.258 60.6121 Q499.202 65.1954 493.392 65.1954 Q487.582 65.1954 484.503 60.6121 Q481.448 56.0056 481.448 47.2788 Q481.448 38.5289 484.503 33.9456 Q487.582 29.3391 493.392 29.3391 Z" fill="#000000" fill-rule="nonzero" fill-opacity="1" /><polyline clip-path="url(#clip922)" style="stroke:#0b0726; stroke-linecap:round; stroke-linejoin:round; stroke-width:4; stroke-opacity:1; fill:none" points="1108.3,787.683 1094.73,774.115 1108.3,760.546 1121.86,774.115 1108.3,787.683 "/>
<polyline clip-path="url(#clip922)" style="stroke:#240b4e; stroke-linecap:round; stroke-linejoin:round; stroke-width:4; stroke-opacity:1; fill:none" points="1108.3,786.714 1095.7,774.115 1108.3,761.516 1120.89,774.115 1108.3,786.714 "/>
<polyline clip-path="url(#clip922)" style="stroke:#410967; stroke-linecap:round; stroke-linejoin:round; stroke-width:4; stroke-opacity:1; fill:none" points="1108.3,785.745 1096.67,774.115 1108.3,762.485 1119.93,774.115 1108.3,785.745 "/>
<polyline clip-path="url(#clip922)" style="stroke:#5d126e; stroke-linecap:round; stroke-linejoin:round; stroke-width:4; stroke-opacity:1; fill:none" points="1108.3,784.775 1097.64,774.115 1108.3,763.454 1118.96,774.115 1108.3,784.775 "/>
<polyline clip-path="url(#clip922)" style="stroke:#781c6d; stroke-linecap:round; stroke-linejoin:round; stroke-width:4; stroke-opacity:1; fill:none" points="1108.3,783.806 1098.6,774.115 1108.3,764.423 1117.99,774.115 1108.3,783.806 "/>
<polyline clip-path="url(#clip922)" style="stroke:#932567; stroke-linecap:round; stroke-linejoin:round; stroke-width:4; stroke-opacity:1; fill:none" points="1108.3,782.837 1099.57,774.115 1108.3,765.392 1117.02,774.115 1108.3,782.837 "/>
<polyline clip-path="url(#clip922)" style="stroke:#ae305b; stroke-linecap:round; stroke-linejoin:round; stroke-width:4; stroke-opacity:1; fill:none" points="1108.3,781.868 1100.54,774.115 1108.3,766.361 1116.05,774.115 1108.3,781.868 "/>
<polyline clip-path="url(#clip922)" style="stroke:#c73e4c; stroke-linecap:round; stroke-linejoin:round; stroke-width:4; stroke-opacity:1; fill:none" points="1108.3,780.899 1101.51,774.115 1108.3,767.331 1115.08,774.115 1108.3,780.899 "/>
<polyline clip-path="url(#clip922)" style="stroke:#dc5039; stroke-linecap:round; stroke-linejoin:round; stroke-width:4; stroke-opacity:1; fill:none" points="1108.3,779.93 1102.48,774.115 1108.3,768.3 1114.11,774.115 1108.3,779.93 "/>
<polyline clip-path="url(#clip922)" style="stroke:#ed6825; stroke-linecap:round; stroke-linejoin:round; stroke-width:4; stroke-opacity:1; fill:none" points="1108.3,778.96 1103.45,774.115 1108.3,769.269 1113.14,774.115 1108.3,778.96 "/>
<polyline clip-path="url(#clip922)" style="stroke:#f7850e; stroke-linecap:round; stroke-linejoin:round; stroke-width:4; stroke-opacity:1; fill:none" points="1108.3,777.991 1104.42,774.115 1108.3,770.238 1112.17,774.115 1108.3,777.991 "/>
<polyline clip-path="url(#clip922)" style="stroke:#fba40a; stroke-linecap:round; stroke-linejoin:round; stroke-width:4; stroke-opacity:1; fill:none" points="1108.3,777.022 1105.39,774.115 1108.3,771.207 1111.2,774.115 1108.3,777.022 "/>
<polyline clip-path="url(#clip922)" style="stroke:#f9c52c; stroke-linecap:round; stroke-linejoin:round; stroke-width:4; stroke-opacity:1; fill:none" points="1108.3,776.053 1106.36,774.115 1108.3,772.176 1110.23,774.115 1108.3,776.053 "/>
<polyline clip-path="url(#clip922)" style="stroke:#f2e660; stroke-linecap:round; stroke-linejoin:round; stroke-width:4; stroke-opacity:1; fill:none" points="1108.3,775.084 1107.33,774.115 1108.3,773.146 1109.26,774.115 1108.3,775.084 "/>
</svg>
