<?xml version="1.0" encoding="utf-8" standalone="no"?>
<!DOCTYPE svg PUBLIC "-//W3C//DTD SVG 1.1//EN"
  "http://www.w3.org/Graphics/SVG/1.1/DTD/svg11.dtd">
<svg height="288pt" version="1.1" viewBox="0 0 432 288" width="432pt" xmlns="http://www.w3.org/2000/svg" xmlns:xlink="http://www.w3.org/1999/xlink">
 <metadata>
  <rdf:RDF xmlns:cc="http://creativecommons.org/ns#" xmlns:dc="http://purl.org/dc/elements/1.1/" xmlns:rdf="http://www.w3.org/1999/02/22-rdf-syntax-ns#">
   <cc:Work>
    <dc:type rdf:resource="http://purl.org/dc/dcmitype/StillImage"/>
    <dc:date>2021-09-11T22:19:23.707777</dc:date>
    <dc:format>image/svg+xml</dc:format>
    <dc:creator>
     <cc:Agent>
      <dc:title>Matplotlib v3.4.2, https://matplotlib.org/</dc:title>
     </cc:Agent>
    </dc:creator>
   </cc:Work>
  </rdf:RDF>
 </metadata>
 <defs>
  <style type="text/css">*{stroke-linecap:butt;stroke-linejoin:round;}</style>
 </defs>
 <g id="figure_1">
  <g id="patch_1">
   <path d="M 0 288 
L 432 288 
L 432 0 
L 0 0 
z
" style="fill:#ffffff;"/>
  </g>
  <g id="axes_1">
   <g id="patch_2">
    <path d="M 88.493055 273.025354 
L 355.083764 273.025354 
L 355.083764 6.434646 
L 88.493055 6.434646 
z
" style="fill:#ffffff;"/>
   </g>
   <g id="LineCollection_1">
    <path clip-path="url(#p3ce8b8b341)" d="M 110.035739 143.769253 
" style="fill:none;stroke:#000004;"/>
   </g>
   <g id="LineCollection_2">
    <path clip-path="url(#p3ce8b8b341)" d="M 188.127966 160.066681 
L 190.820802 160.812545 
L 193.513637 161.037127 
L 196.206473 160.812545 
L 198.899308 160.066681 
L 199.21308 159.926266 
L 201.592144 159.128856 
L 204.284979 157.467396 
L 204.585304 157.23343 
L 206.977814 155.338113 
L 207.775333 154.540595 
L 209.67065 152.148084 
L 209.904616 151.847759 
L 211.566075 149.154924 
L 212.363485 146.77586 
L 212.503901 146.462089 
L 213.249764 143.769253 
L 213.474346 141.076418 
L 213.249764 138.383582 
L 212.503901 135.690747 
L 212.363485 135.376975 
L 211.566075 132.997911 
L 209.904616 130.305076 
L 209.67065 130.004751 
L 207.775333 127.612241 
L 206.977814 126.814722 
L 204.585304 124.919405 
L 204.284979 124.685439 
L 201.592144 123.02398 
L 199.21308 122.22657 
L 198.899308 122.086154 
L 196.206473 121.340291 
L 193.513637 121.115709 
L 190.820802 121.340291 
L 188.127966 122.086154 
L 187.814195 122.22657 
L 185.435131 123.02398 
L 182.742296 124.685439 
L 182.441971 124.919405 
L 180.04946 126.814722 
L 179.251942 127.612241 
L 177.356625 130.004751 
L 177.122659 130.305076 
L 175.461199 132.997911 
L 174.663789 135.376975 
L 174.523374 135.690747 
L 173.77751 138.383582 
L 173.552929 141.076418 
L 173.77751 143.769253 
L 174.523374 146.462089 
L 174.663789 146.77586 
L 175.461199 149.154924 
L 177.122659 151.847759 
L 177.356625 152.148084 
L 179.251942 154.540595 
L 180.04946 155.338113 
L 182.441971 157.23343 
L 182.742296 157.467396 
L 185.435131 159.128856 
L 187.814195 159.926266 
L 188.127966 160.066681 
" style="fill:none;stroke:#0c0826;"/>
   </g>
   <g id="LineCollection_3">
    <path clip-path="url(#p3ce8b8b341)" d="M 190.820802 157.915707 
L 193.513637 158.174986 
L 196.206473 157.915707 
L 198.406724 157.23343 
L 198.899308 157.118206 
L 201.592144 155.98611 
L 203.608236 154.540595 
L 204.284979 154.032939 
L 206.470159 151.847759 
L 206.977814 151.171016 
L 208.42333 149.154924 
L 209.555425 146.462089 
L 209.67065 145.969505 
L 210.352927 143.769253 
L 210.612206 141.076418 
L 210.352927 138.383582 
L 209.67065 136.183331 
L 209.555425 135.690747 
L 208.42333 132.997911 
L 206.977814 130.981819 
L 206.470159 130.305076 
L 204.284979 128.119896 
L 203.608236 127.612241 
L 201.592144 126.166725 
L 198.899308 125.03463 
L 198.406724 124.919405 
L 196.206473 124.237128 
L 193.513637 123.977849 
L 190.820802 124.237128 
L 188.62055 124.919405 
L 188.127966 125.03463 
L 185.435131 126.166725 
L 183.419039 127.612241 
L 182.742296 128.119896 
L 180.557116 130.305076 
L 180.04946 130.981819 
L 178.603945 132.997911 
L 177.471849 135.690747 
L 177.356625 136.183331 
L 176.674348 138.383582 
L 176.415069 141.076418 
L 176.674348 143.769253 
L 177.356625 145.969505 
L 177.471849 146.462089 
L 178.603945 149.154924 
L 180.04946 151.171016 
L 180.557116 151.847759 
L 182.742296 154.032939 
L 183.419039 154.540595 
L 185.435131 155.98611 
L 188.127966 157.118206 
L 188.62055 157.23343 
L 190.820802 157.915707 
" style="fill:none;stroke:#240c4f;"/>
   </g>
   <g id="LineCollection_4">
    <path clip-path="url(#p3ce8b8b341)" d="M 188.127966 155.215597 
L 190.820802 156.047882 
L 193.513637 156.298486 
L 196.206473 156.047882 
L 198.899308 155.215597 
L 200.141274 154.540595 
L 201.592144 153.79394 
L 203.949084 151.847759 
L 204.284979 151.511864 
L 206.23116 149.154924 
L 206.977814 147.704054 
L 207.652817 146.462089 
L 208.485102 143.769253 
L 208.735705 141.076418 
L 208.485102 138.383582 
L 207.652817 135.690747 
L 206.977814 134.448781 
L 206.23116 132.997911 
L 204.284979 130.640971 
L 203.949084 130.305076 
L 201.592144 128.358895 
L 200.141274 127.612241 
L 198.899308 126.937238 
L 196.206473 126.104953 
L 193.513637 125.85435 
L 190.820802 126.104953 
L 188.127966 126.937238 
L 186.886001 127.612241 
L 185.435131 128.358895 
L 183.078191 130.305076 
L 182.742296 130.640971 
L 180.796115 132.997911 
L 180.04946 134.448781 
L 179.374458 135.690747 
L 178.542173 138.383582 
L 178.291569 141.076418 
L 178.542173 143.769253 
L 179.374458 146.462089 
L 180.04946 147.704054 
L 180.796115 149.154924 
L 182.742296 151.511864 
L 183.078191 151.847759 
L 185.435131 153.79394 
L 186.886001 154.540595 
L 188.127966 155.215597 
" style="fill:none;stroke:#420a68;"/>
   </g>
   <g id="LineCollection_5">
    <path clip-path="url(#p3ce8b8b341)" d="M 193.513637 154.75684 
L 195.288556 154.540595 
L 196.206473 154.45456 
L 198.899308 153.644728 
L 201.592144 151.992396 
L 201.767307 151.847759 
L 204.284979 149.330088 
L 204.429616 149.154924 
L 206.081948 146.462089 
L 206.89178 143.769253 
L 206.977814 142.851336 
L 207.19406 141.076418 
L 206.977814 139.301499 
L 206.89178 138.383582 
L 206.081948 135.690747 
L 204.429616 132.997911 
L 204.284979 132.822748 
L 201.767307 130.305076 
L 201.592144 130.160439 
L 198.899308 128.508107 
L 196.206473 127.698275 
L 195.288556 127.612241 
L 193.513637 127.395995 
L 191.738719 127.612241 
L 190.820802 127.698275 
L 188.127966 128.508107 
L 185.435131 130.160439 
L 185.259967 130.305076 
L 182.742296 132.822748 
L 182.597659 132.997911 
L 180.945327 135.690747 
L 180.135495 138.383582 
L 180.04946 139.301499 
L 179.833215 141.076418 
L 180.04946 142.851336 
L 180.135495 143.769253 
L 180.945327 146.462089 
L 182.597659 149.154924 
L 182.742296 149.330088 
L 185.259967 151.847759 
L 185.435131 151.992396 
L 188.127966 153.644728 
L 190.820802 154.45456 
L 191.738719 154.540595 
L 193.513637 154.75684 
" style="fill:none;stroke:#5d126e;"/>
   </g>
   <g id="LineCollection_6">
    <path clip-path="url(#p3ce8b8b341)" d="M 188.127966 152.256267 
L 190.820802 153.268557 
L 193.513637 153.573361 
L 196.206473 153.268557 
L 198.899308 152.256267 
L 199.551961 151.847759 
L 201.592144 150.448124 
L 202.885344 149.154924 
L 204.284979 147.114741 
L 204.693487 146.462089 
L 205.705777 143.769253 
L 206.010581 141.076418 
L 205.705777 138.383582 
L 204.693487 135.690747 
L 204.284979 135.038094 
L 202.885344 132.997911 
L 201.592144 131.704711 
L 199.551961 130.305076 
L 198.899308 129.896568 
L 196.206473 128.884278 
L 193.513637 128.579474 
L 190.820802 128.884278 
L 188.127966 129.896568 
L 187.475314 130.305076 
L 185.435131 131.704711 
L 184.141931 132.997911 
L 182.742296 135.038094 
L 182.333788 135.690747 
L 181.321498 138.383582 
L 181.016694 141.076418 
L 181.321498 143.769253 
L 182.333788 146.462089 
L 182.742296 147.114741 
L 184.141931 149.154924 
L 185.435131 150.448124 
L 187.475314 151.847759 
L 188.127966 152.256267 
" style="fill:none;stroke:#781c6d;"/>
   </g>
   <g id="LineCollection_7">
    <path clip-path="url(#p3ce8b8b341)" d="M 190.820802 152.082554 
L 193.513637 152.448319 
L 196.206473 152.082554 
L 196.796349 151.847759 
L 198.899308 151.019966 
L 201.359705 149.154924 
L 201.592144 148.922486 
L 203.457185 146.462089 
L 204.284979 144.35913 
L 204.519774 143.769253 
L 204.885538 141.076418 
L 204.519774 138.383582 
L 204.284979 137.793706 
L 203.457185 135.690747 
L 201.592144 133.23035 
L 201.359705 132.997911 
L 198.899308 131.13287 
L 196.796349 130.305076 
L 196.206473 130.070281 
L 193.513637 129.704517 
L 190.820802 130.070281 
L 190.230925 130.305076 
L 188.127966 131.13287 
L 185.667569 132.997911 
L 185.435131 133.23035 
L 183.570089 135.690747 
L 182.742296 137.793706 
L 182.507501 138.383582 
L 182.141736 141.076418 
L 182.507501 143.769253 
L 182.742296 144.35913 
L 183.570089 146.462089 
L 185.435131 148.922486 
L 185.667569 149.154924 
L 188.127966 151.019966 
L 190.230925 151.847759 
L 190.820802 152.082554 
" style="fill:none;stroke:#932667;"/>
   </g>
   <g id="LineCollection_8">
    <path clip-path="url(#p3ce8b8b341)" d="M 188.127966 149.847094 
L 190.820802 151.044247 
L 193.513637 151.404714 
L 196.206473 151.044247 
L 198.899308 149.847094 
L 199.812432 149.154924 
L 201.592144 147.375212 
L 202.284314 146.462089 
L 203.481467 143.769253 
L 203.841934 141.076418 
L 203.481467 138.383582 
L 202.284314 135.690747 
L 201.592144 134.777623 
L 199.812432 132.997911 
L 198.899308 132.305741 
L 196.206473 131.108588 
L 193.513637 130.748121 
L 190.820802 131.108588 
L 188.127966 132.305741 
L 187.214843 132.997911 
L 185.435131 134.777623 
L 184.742961 135.690747 
L 183.545808 138.383582 
L 183.185341 141.076418 
L 183.545808 143.769253 
L 184.742961 146.462089 
L 185.435131 147.375212 
L 187.214843 149.154924 
L 188.127966 149.847094 
" style="fill:none;stroke:#ae305c;"/>
   </g>
   <g id="LineCollection_9">
    <path clip-path="url(#p3ce8b8b341)" d="M 190.820802 150.042398 
L 193.513637 150.45436 
L 196.206473 150.042398 
L 198.047513 149.154924 
L 198.899308 148.666181 
L 201.1034 146.462089 
L 201.592144 145.610294 
L 202.479617 143.769253 
L 202.891579 141.076418 
L 202.479617 138.383582 
L 201.592144 136.542542 
L 201.1034 135.690747 
L 198.899308 133.486655 
L 198.047513 132.997911 
L 196.206473 132.110438 
L 193.513637 131.698476 
L 190.820802 132.110438 
L 188.979761 132.997911 
L 188.127966 133.486655 
L 185.923874 135.690747 
L 185.435131 136.542542 
L 184.547657 138.383582 
L 184.135695 141.076418 
L 184.547657 143.769253 
L 185.435131 145.610294 
L 185.923874 146.462089 
L 188.127966 148.666181 
L 188.979761 149.154924 
L 190.820802 150.042398 
" style="fill:none;stroke:#c73e4c;"/>
   </g>
   <g id="LineCollection_10">
    <path clip-path="url(#p3ce8b8b341)" d="M 193.513637 149.504005 
L 195.567972 149.154924 
L 196.206473 149.038635 
L 198.899308 147.473688 
L 199.910907 146.462089 
L 201.475854 143.769253 
L 201.592144 143.130753 
L 201.941225 141.076418 
L 201.592144 139.022083 
L 201.475854 138.383582 
L 199.910907 135.690747 
L 198.899308 134.679148 
L 196.206473 133.114201 
L 195.567972 132.997911 
L 193.513637 132.64883 
L 191.459302 132.997911 
L 190.820802 133.114201 
L 188.127966 134.679148 
L 187.116367 135.690747 
L 185.55142 138.383582 
L 185.435131 139.022083 
L 185.08605 141.076418 
L 185.435131 143.130753 
L 185.55142 143.769253 
L 187.116367 146.462089 
L 188.127966 147.473688 
L 190.820802 149.038635 
L 191.459302 149.154924 
L 193.513637 149.504005 
" style="fill:none;stroke:#dd513a;"/>
   </g>
   <g id="LineCollection_11">
    <path clip-path="url(#p3ce8b8b341)" d="M 190.820802 148.020025 
L 193.513637 148.543592 
L 196.206473 148.020025 
L 198.65633 146.462089 
L 198.899308 146.21911 
L 200.457244 143.769253 
L 200.980812 141.076418 
L 200.457244 138.383582 
L 198.899308 135.933725 
L 198.65633 135.690747 
L 196.206473 134.132811 
L 193.513637 133.609243 
L 190.820802 134.132811 
L 188.370945 135.690747 
L 188.127966 135.933725 
L 186.57003 138.383582 
L 186.046463 141.076418 
L 186.57003 143.769253 
L 188.127966 146.21911 
L 188.370945 146.462089 
L 190.820802 148.020025 
" style="fill:none;stroke:#ed6925;"/>
   </g>
   <g id="LineCollection_12">
    <path clip-path="url(#p3ce8b8b341)" d="M 190.820802 147.001415 
L 193.513637 147.577339 
L 196.206473 147.001415 
L 197.054564 146.462089 
L 198.899308 144.617344 
L 199.438634 143.769253 
L 200.014558 141.076418 
L 199.438634 138.383582 
L 198.899308 137.535491 
L 197.054564 135.690747 
L 196.206473 135.151421 
L 193.513637 134.575497 
L 190.820802 135.151421 
L 189.972711 135.690747 
L 188.127966 137.535491 
L 187.58864 138.383582 
L 187.012716 141.076418 
L 187.58864 143.769253 
L 188.127966 144.617344 
L 189.972711 146.462089 
L 190.820802 147.001415 
" style="fill:none;stroke:#f8850f;"/>
   </g>
   <g id="LineCollection_13">
    <path clip-path="url(#p3ce8b8b341)" d="M 193.513637 146.611085 
L 194.178305 146.462089 
L 196.206473 145.81831 
L 198.25553 143.769253 
L 198.899308 141.741086 
L 199.048305 141.076418 
L 198.899308 140.41175 
L 198.25553 138.383582 
L 196.206473 136.334525 
L 194.178305 135.690747 
L 193.513637 135.54175 
L 192.848969 135.690747 
L 190.820802 136.334525 
L 188.771745 138.383582 
L 188.127966 140.41175 
L 187.97897 141.076418 
L 188.127966 141.741086 
L 188.771745 143.769253 
L 190.820802 145.81831 
L 192.848969 146.462089 
L 193.513637 146.611085 
" style="fill:none;stroke:#fca50a;"/>
   </g>
   <g id="LineCollection_14">
    <path clip-path="url(#p3ce8b8b341)" d="M 190.820802 144.450105 
L 193.513637 145.364343 
L 196.206473 144.450105 
L 196.887325 143.769253 
L 197.801563 141.076418 
L 196.887325 138.383582 
L 196.206473 137.70273 
L 193.513637 136.788492 
L 190.820802 137.70273 
L 190.13995 138.383582 
L 189.225712 141.076418 
L 190.13995 143.769253 
L 190.820802 144.450105 
" style="fill:none;stroke:#fac62d;"/>
   </g>
   <g id="LineCollection_15">
    <path clip-path="url(#p3ce8b8b341)" d="M 193.513637 144.066464 
L 194.356781 143.769253 
L 196.206473 141.919561 
L 196.503684 141.076418 
L 196.206473 140.233274 
L 194.356781 138.383582 
L 193.513637 138.086371 
L 192.670494 138.383582 
L 190.820802 140.233274 
L 190.523591 141.076418 
L 190.820802 141.919561 
L 192.670494 143.769253 
L 193.513637 144.066464 
" style="fill:none;stroke:#f2e661;"/>
   </g>
   <g id="LineCollection_16"/>
   <g id="matplotlib.axis_1">
    <g id="xtick_1">
     <g id="line2d_1">
      <defs>
       <path d="M 0 0 
L 0 -2.5 
" id="md73fcb98c6" style="stroke:#000000;stroke-width:0.5;"/>
      </defs>
      <g>
       <use style="stroke:#000000;stroke-width:0.5;" x="139.656928" xlink:href="#md73fcb98c6" y="273.025354"/>
      </g>
     </g>
     <g id="line2d_2">
      <defs>
       <path d="M 0 0 
L 0 2.5 
" id="m207512bed0" style="stroke:#000000;stroke-width:0.5;"/>
      </defs>
      <g>
       <use style="stroke:#000000;stroke-width:0.5;" x="139.656928" xlink:href="#m207512bed0" y="6.434646"/>
      </g>
     </g>
     <g id="text_1">
      <!-- $\mathregular{20}$ -->
      <g transform="translate(134.536928 282.604104)scale(0.08 -0.08)">
       <defs>
        <path d="M 1228 531 
L 3431 531 
L 3431 0 
L 469 0 
L 469 531 
Q 828 903 1448 1529 
Q 2069 2156 2228 2338 
Q 2531 2678 2651 2914 
Q 2772 3150 2772 3378 
Q 2772 3750 2511 3984 
Q 2250 4219 1831 4219 
Q 1534 4219 1204 4116 
Q 875 4013 500 3803 
L 500 4441 
Q 881 4594 1212 4672 
Q 1544 4750 1819 4750 
Q 2544 4750 2975 4387 
Q 3406 4025 3406 3419 
Q 3406 3131 3298 2873 
Q 3191 2616 2906 2266 
Q 2828 2175 2409 1742 
Q 1991 1309 1228 531 
z
" id="DejaVuSans-32" transform="scale(0.015625)"/>
        <path d="M 2034 4250 
Q 1547 4250 1301 3770 
Q 1056 3291 1056 2328 
Q 1056 1369 1301 889 
Q 1547 409 2034 409 
Q 2525 409 2770 889 
Q 3016 1369 3016 2328 
Q 3016 3291 2770 3770 
Q 2525 4250 2034 4250 
z
M 2034 4750 
Q 2819 4750 3233 4129 
Q 3647 3509 3647 2328 
Q 3647 1150 3233 529 
Q 2819 -91 2034 -91 
Q 1250 -91 836 529 
Q 422 1150 422 2328 
Q 422 3509 836 4129 
Q 1250 4750 2034 4750 
z
" id="DejaVuSans-30" transform="scale(0.015625)"/>
       </defs>
       <use transform="translate(0 0.78125)" xlink:href="#DejaVuSans-32"/>
       <use transform="translate(63.623047 0.78125)" xlink:href="#DejaVuSans-30"/>
      </g>
     </g>
    </g>
    <g id="xtick_2">
     <g id="line2d_3">
      <g>
       <use style="stroke:#000000;stroke-width:0.5;" x="193.513637" xlink:href="#md73fcb98c6" y="273.025354"/>
      </g>
     </g>
     <g id="line2d_4">
      <g>
       <use style="stroke:#000000;stroke-width:0.5;" x="193.513637" xlink:href="#m207512bed0" y="6.434646"/>
      </g>
     </g>
     <g id="text_2">
      <!-- $\mathregular{40}$ -->
      <g transform="translate(188.393637 282.604104)scale(0.08 -0.08)">
       <defs>
        <path d="M 2419 4116 
L 825 1625 
L 2419 1625 
L 2419 4116 
z
M 2253 4666 
L 3047 4666 
L 3047 1625 
L 3713 1625 
L 3713 1100 
L 3047 1100 
L 3047 0 
L 2419 0 
L 2419 1100 
L 313 1100 
L 313 1709 
L 2253 4666 
z
" id="DejaVuSans-34" transform="scale(0.015625)"/>
       </defs>
       <use transform="translate(0 0.78125)" xlink:href="#DejaVuSans-34"/>
       <use transform="translate(63.623047 0.78125)" xlink:href="#DejaVuSans-30"/>
      </g>
     </g>
    </g>
    <g id="xtick_3">
     <g id="line2d_5">
      <g>
       <use style="stroke:#000000;stroke-width:0.5;" x="247.370346" xlink:href="#md73fcb98c6" y="273.025354"/>
      </g>
     </g>
     <g id="line2d_6">
      <g>
       <use style="stroke:#000000;stroke-width:0.5;" x="247.370346" xlink:href="#m207512bed0" y="6.434646"/>
      </g>
     </g>
     <g id="text_3">
      <!-- $\mathregular{60}$ -->
      <g transform="translate(242.250346 282.604104)scale(0.08 -0.08)">
       <defs>
        <path d="M 2113 2584 
Q 1688 2584 1439 2293 
Q 1191 2003 1191 1497 
Q 1191 994 1439 701 
Q 1688 409 2113 409 
Q 2538 409 2786 701 
Q 3034 994 3034 1497 
Q 3034 2003 2786 2293 
Q 2538 2584 2113 2584 
z
M 3366 4563 
L 3366 3988 
Q 3128 4100 2886 4159 
Q 2644 4219 2406 4219 
Q 1781 4219 1451 3797 
Q 1122 3375 1075 2522 
Q 1259 2794 1537 2939 
Q 1816 3084 2150 3084 
Q 2853 3084 3261 2657 
Q 3669 2231 3669 1497 
Q 3669 778 3244 343 
Q 2819 -91 2113 -91 
Q 1303 -91 875 529 
Q 447 1150 447 2328 
Q 447 3434 972 4092 
Q 1497 4750 2381 4750 
Q 2619 4750 2861 4703 
Q 3103 4656 3366 4563 
z
" id="DejaVuSans-36" transform="scale(0.015625)"/>
       </defs>
       <use transform="translate(0 0.78125)" xlink:href="#DejaVuSans-36"/>
       <use transform="translate(63.623047 0.78125)" xlink:href="#DejaVuSans-30"/>
      </g>
     </g>
    </g>
    <g id="xtick_4">
     <g id="line2d_7">
      <g>
       <use style="stroke:#000000;stroke-width:0.5;" x="301.227055" xlink:href="#md73fcb98c6" y="273.025354"/>
      </g>
     </g>
     <g id="line2d_8">
      <g>
       <use style="stroke:#000000;stroke-width:0.5;" x="301.227055" xlink:href="#m207512bed0" y="6.434646"/>
      </g>
     </g>
     <g id="text_4">
      <!-- $\mathregular{80}$ -->
      <g transform="translate(296.107055 282.604104)scale(0.08 -0.08)">
       <defs>
        <path d="M 2034 2216 
Q 1584 2216 1326 1975 
Q 1069 1734 1069 1313 
Q 1069 891 1326 650 
Q 1584 409 2034 409 
Q 2484 409 2743 651 
Q 3003 894 3003 1313 
Q 3003 1734 2745 1975 
Q 2488 2216 2034 2216 
z
M 1403 2484 
Q 997 2584 770 2862 
Q 544 3141 544 3541 
Q 544 4100 942 4425 
Q 1341 4750 2034 4750 
Q 2731 4750 3128 4425 
Q 3525 4100 3525 3541 
Q 3525 3141 3298 2862 
Q 3072 2584 2669 2484 
Q 3125 2378 3379 2068 
Q 3634 1759 3634 1313 
Q 3634 634 3220 271 
Q 2806 -91 2034 -91 
Q 1263 -91 848 271 
Q 434 634 434 1313 
Q 434 1759 690 2068 
Q 947 2378 1403 2484 
z
M 1172 3481 
Q 1172 3119 1398 2916 
Q 1625 2713 2034 2713 
Q 2441 2713 2670 2916 
Q 2900 3119 2900 3481 
Q 2900 3844 2670 4047 
Q 2441 4250 2034 4250 
Q 1625 4250 1398 4047 
Q 1172 3844 1172 3481 
z
" id="DejaVuSans-38" transform="scale(0.015625)"/>
       </defs>
       <use transform="translate(0 0.78125)" xlink:href="#DejaVuSans-38"/>
       <use transform="translate(63.623047 0.78125)" xlink:href="#DejaVuSans-30"/>
      </g>
     </g>
    </g>
    <g id="xtick_5">
     <g id="line2d_9">
      <g>
       <use style="stroke:#000000;stroke-width:0.5;" x="355.083764" xlink:href="#md73fcb98c6" y="273.025354"/>
      </g>
     </g>
     <g id="line2d_10">
      <g>
       <use style="stroke:#000000;stroke-width:0.5;" x="355.083764" xlink:href="#m207512bed0" y="6.434646"/>
      </g>
     </g>
     <g id="text_5">
      <!-- $\mathregular{100}$ -->
      <g transform="translate(347.443764 282.604104)scale(0.08 -0.08)">
       <defs>
        <path d="M 794 531 
L 1825 531 
L 1825 4091 
L 703 3866 
L 703 4441 
L 1819 4666 
L 2450 4666 
L 2450 531 
L 3481 531 
L 3481 0 
L 794 0 
L 794 531 
z
" id="DejaVuSans-31" transform="scale(0.015625)"/>
       </defs>
       <use transform="translate(0 0.78125)" xlink:href="#DejaVuSans-31"/>
       <use transform="translate(63.623047 0.78125)" xlink:href="#DejaVuSans-30"/>
       <use transform="translate(127.246094 0.78125)" xlink:href="#DejaVuSans-30"/>
      </g>
     </g>
    </g>
   </g>
   <g id="matplotlib.axis_2">
    <g id="ytick_1">
     <g id="line2d_11">
      <defs>
       <path d="M 0 0 
L 2.5 0 
" id="m04a719f92d" style="stroke:#000000;stroke-width:0.5;"/>
      </defs>
      <g>
       <use style="stroke:#000000;stroke-width:0.5;" x="88.493055" xlink:href="#m04a719f92d" y="221.861481"/>
      </g>
     </g>
     <g id="line2d_12">
      <defs>
       <path d="M 0 0 
L -2.5 0 
" id="m612de80e43" style="stroke:#000000;stroke-width:0.5;"/>
      </defs>
      <g>
       <use style="stroke:#000000;stroke-width:0.5;" x="355.083764" xlink:href="#m612de80e43" y="221.861481"/>
      </g>
     </g>
     <g id="text_6">
      <!-- $\mathregular{20}$ -->
      <g transform="translate(74.753055 224.900856)scale(0.08 -0.08)">
       <use transform="translate(0 0.78125)" xlink:href="#DejaVuSans-32"/>
       <use transform="translate(63.623047 0.78125)" xlink:href="#DejaVuSans-30"/>
      </g>
     </g>
    </g>
    <g id="ytick_2">
     <g id="line2d_13">
      <g>
       <use style="stroke:#000000;stroke-width:0.5;" x="88.493055" xlink:href="#m04a719f92d" y="168.004772"/>
      </g>
     </g>
     <g id="line2d_14">
      <g>
       <use style="stroke:#000000;stroke-width:0.5;" x="355.083764" xlink:href="#m612de80e43" y="168.004772"/>
      </g>
     </g>
     <g id="text_7">
      <!-- $\mathregular{40}$ -->
      <g transform="translate(74.753055 171.044147)scale(0.08 -0.08)">
       <use transform="translate(0 0.78125)" xlink:href="#DejaVuSans-34"/>
       <use transform="translate(63.623047 0.78125)" xlink:href="#DejaVuSans-30"/>
      </g>
     </g>
    </g>
    <g id="ytick_3">
     <g id="line2d_15">
      <g>
       <use style="stroke:#000000;stroke-width:0.5;" x="88.493055" xlink:href="#m04a719f92d" y="114.148063"/>
      </g>
     </g>
     <g id="line2d_16">
      <g>
       <use style="stroke:#000000;stroke-width:0.5;" x="355.083764" xlink:href="#m612de80e43" y="114.148063"/>
      </g>
     </g>
     <g id="text_8">
      <!-- $\mathregular{60}$ -->
      <g transform="translate(74.753055 117.187438)scale(0.08 -0.08)">
       <use transform="translate(0 0.78125)" xlink:href="#DejaVuSans-36"/>
       <use transform="translate(63.623047 0.78125)" xlink:href="#DejaVuSans-30"/>
      </g>
     </g>
    </g>
    <g id="ytick_4">
     <g id="line2d_17">
      <g>
       <use style="stroke:#000000;stroke-width:0.5;" x="88.493055" xlink:href="#m04a719f92d" y="60.291354"/>
      </g>
     </g>
     <g id="line2d_18">
      <g>
       <use style="stroke:#000000;stroke-width:0.5;" x="355.083764" xlink:href="#m612de80e43" y="60.291354"/>
      </g>
     </g>
     <g id="text_9">
      <!-- $\mathregular{80}$ -->
      <g transform="translate(74.753055 63.330729)scale(0.08 -0.08)">
       <use transform="translate(0 0.78125)" xlink:href="#DejaVuSans-38"/>
       <use transform="translate(63.623047 0.78125)" xlink:href="#DejaVuSans-30"/>
      </g>
     </g>
    </g>
    <g id="ytick_5">
     <g id="line2d_19">
      <g>
       <use style="stroke:#000000;stroke-width:0.5;" x="88.493055" xlink:href="#m04a719f92d" y="6.434646"/>
      </g>
     </g>
     <g id="line2d_20">
      <g>
       <use style="stroke:#000000;stroke-width:0.5;" x="355.083764" xlink:href="#m612de80e43" y="6.434646"/>
      </g>
     </g>
     <g id="text_10">
      <!-- $\mathregular{100}$ -->
      <g transform="translate(69.713055 9.474021)scale(0.08 -0.08)">
       <use transform="translate(0 0.78125)" xlink:href="#DejaVuSans-31"/>
       <use transform="translate(63.623047 0.78125)" xlink:href="#DejaVuSans-30"/>
       <use transform="translate(127.246094 0.78125)" xlink:href="#DejaVuSans-30"/>
      </g>
     </g>
    </g>
   </g>
   <g id="patch_3">
    <path d="M 88.493055 273.025354 
L 88.493055 6.434646 
" style="fill:none;stroke:#000000;stroke-linecap:square;stroke-linejoin:miter;"/>
   </g>
   <g id="patch_4">
    <path d="M 355.083764 273.025354 
L 355.083764 6.434646 
" style="fill:none;stroke:#000000;stroke-linecap:square;stroke-linejoin:miter;"/>
   </g>
   <g id="patch_5">
    <path d="M 88.493055 273.025354 
L 355.083764 273.025354 
" style="fill:none;stroke:#000000;stroke-linecap:square;stroke-linejoin:miter;"/>
   </g>
   <g id="patch_6">
    <path d="M 88.493055 6.434646 
L 355.083764 6.434646 
" style="fill:none;stroke:#000000;stroke-linecap:square;stroke-linejoin:miter;"/>
   </g>
  </g>
 </g>
 <defs>
  <clipPath id="p3ce8b8b341">
   <rect height="266.590709" width="266.590709" x="88.493055" y="6.434646"/>
  </clipPath>
 </defs>
</svg>
